<?xml version="1.0" encoding="UTF-8" standalone="no"?>
<!-- Created with Inkscape (http://www.inkscape.org/) -->

<svg
   width="44.088699"
   height="43.779999"
   viewBox="0 0 44.088699 43.779999"
   version="1.1"
   id="svg1"
   xml:space="preserve"
   inkscape:export-filename="appiconfg.svg"
   inkscape:export-xdpi="9"
   inkscape:export-ydpi="9"
   inkscape:version="1.4.2 (f4327f4, 2025-05-13)"
   sodipodi:docname="appiconfg.svg"
   xmlns:inkscape="http://www.inkscape.org/namespaces/inkscape"
   xmlns:sodipodi="http://sodipodi.sourceforge.net/DTD/sodipodi-0.dtd"
   xmlns:xlink="http://www.w3.org/1999/xlink"
   xmlns="http://www.w3.org/2000/svg"
   xmlns:svg="http://www.w3.org/2000/svg"><sodipodi:namedview
     id="namedview1"
     pagecolor="#ffffff"
     bordercolor="#000000"
     borderopacity="0.25"
     inkscape:showpageshadow="2"
     inkscape:pageopacity="0.0"
     inkscape:pagecheckerboard="0"
     inkscape:deskcolor="#d1d1d1"
     inkscape:document-units="px"
     inkscape:zoom="11.313709"
     inkscape:cx="11.313708"
     inkscape:cy="24.792931"
     inkscape:window-width="2560"
     inkscape:window-height="1009"
     inkscape:window-x="1432"
     inkscape:window-y="-8"
     inkscape:window-maximized="1"
     inkscape:current-layer="layer1"><inkscape:page
       x="0"
       y="0"
       width="44.088699"
       height="43.779999"
       id="page2"
       margin="0"
       bleed="0" /></sodipodi:namedview><defs
     id="defs1"><linearGradient
       id="linearGradient1"
       inkscape:collect="always"><stop
         style="stop-color:#ff7200;stop-opacity:1;"
         offset="0"
         id="stop1" /><stop
         style="stop-color:#fc0349;stop-opacity:1;"
         offset="1"
         id="stop2" /></linearGradient><linearGradient
       inkscape:collect="always"
       xlink:href="#linearGradient1"
       id="linearGradient2"
       x1="1279.0483"
       y1="22170.172"
       x2="47020.254"
       y2="21378.379"
       gradientUnits="userSpaceOnUse"
       gradientTransform="matrix(0.71093707,0,0,0.41531468,7500.4892,19795.231)" /></defs><g
     inkscape:label="Camada 1"
     inkscape:groupmode="layer"
     id="layer1"
     transform="translate(-45.705318,-47.345789)"><g
       inkscape:label="Image"
       id="g1"
       style="display:inline"
       transform="matrix(0.00108581,0,0,0.00108581,41.064813,42.550923)"><rect
         style="fill:url(#linearGradient2);fill-opacity:1;stroke-width:0.54338"
         id="rect1"
         width="35636.797"
         height="20615.912"
         x="7110.7793"
         y="19769.936" /><path
         style="fill:#fff5e0;fill-opacity:1;stroke:#fc0449;stroke-width:1.028;stroke-dasharray:none;stroke-opacity:1"
         d="M 8125.6628,44679.787 C 6408.7347,44424.207 4895.238,42974.188 4436.8387,41145.676 4331.6044,40725.906 4319.1165,39110.651 4336.7186,28195.657 l 20.1105,-12470.431 H 24596.189 44835.55 v 12440.761 c 0,12129.174 -3.92,12456.129 -156.935,13054.41 -206.987,809.316 -573.748,1481.553 -1137.49,2084.916 -557.376,596.548 -1057.434,927.813 -1822.806,1207.522 l -577.087,210.9 -16286.834,10.917 c -8957.759,6.003 -16485.6934,-18.686 -16728.7432,-54.865 z M 12341.35,33727.233 c 1267.887,-478.199 1952.4,-1489.932 1939.853,-2867.169 -13.657,-1499.012 -684.889,-2256.861 -2653.844,-2996.295 -1122.972,-421.729 -1510.552,-745.204 -1510.552,-1260.71 0,-456.168 355.834,-808.948 956.8,-948.588 309.168,-71.838 1268.676,158.449 1820.204,436.861 459.125,231.765 507.222,240.874 678.671,128.536 271.66,-177.998 451.697,-1074.004 280.194,-1394.46 -238.285,-445.238 -1560.201,-877.317 -2684.093,-877.317 -1941.6959,0 -3126.1895,1044.294 -3254.9155,2869.657 -103.8383,1472.45 650.2724,2384.824 2523.6635,3053.298 1544.78,551.217 2002.796,1054.761 1624.606,1786.098 -354.297,685.136 -1832.859,719.532 -3106.1538,72.258 -452.2639,-229.906 -641.9332,-289.303 -745.9867,-233.615 -322.6256,172.664 -541.7543,1278.926 -308.9047,1559.493 313.9493,378.285 1353.7684,811.868 2136.4672,890.861 735.063,74.186 1793.535,-26.382 2303.991,-218.908 z m 4471.921,-7.951 c 200.829,-157.972 366.74,-573.437 657.965,-1647.636 l 134.619,-496.55 h 1569.877 1569.878 l 51.637,218.482 c 28.4,120.165 158.891,568.488 289.979,996.274 290.331,947.448 452.032,1088.466 1248.652,1088.938 781.629,0.465 1082.265,-227.214 1065.776,-807.135 -3.32,-116.785 -256.28,-992.87 -562.133,-1946.858 -580.471,-1810.549 -1515.077,-4805.657 -1876.547,-6013.719 -126.634,-423.223 -286.342,-779.725 -400.407,-893.79 -179.777,-179.777 -241.899,-189.749 -1182.03,-189.749 -918.25,0 -1006.839,13.336 -1187.412,178.758 -152.162,139.394 -511.932,1132.243 -1633.768,4508.672 -791.25,2381.453 -1438.342,4421.398 -1437.982,4533.212 1.356,421.559 326.192,625.126 1002.902,628.491 369.02,1.834 534.683,-36.009 688.994,-157.39 z m 1275.278,-3832.455 c 191.664,-753.375 1048.331,-3777.671 1065.271,-3760.731 22.091,22.091 1132.327,3854.782 1132.327,3908.953 0,16.795 -504.691,30.536 -1121.538,30.536 h -1121.537 z m 7581.768,3869.014 c 253.209,-177.355 338.32,-371.328 573.4,-1306.817 l 209.628,-834.204 h 1539.111 1539.111 l 260.827,873.928 c 143.455,480.66 302.835,952.658 354.179,1048.884 255.378,478.621 1708.615,446.299 1970.927,-43.836 180.662,-337.571 220.758,-186.045 -1422.199,-5374.687 -387.415,-1223.498 -815.53,-2589.782 -951.369,-3036.186 -169.854,-558.191 -301.311,-849.699 -420.973,-933.513 -133.183,-93.286 -400.274,-121.871 -1138.702,-121.871 -1175.959,0 -1298.428,65.51 -1529.272,818.024 -624.915,2037.113 -1691.779,5422.988 -2083.591,6612.63 -536.322,1628.405 -572.66,1937.716 -261.523,2226.068 175.624,162.762 290.39,194.826 697.354,194.826 311.58,0 550.545,-44.415 663.092,-123.246 z m 1376.043,-4305.978 c 85.149,-294.951 322.661,-1152.989 527.804,-1906.751 205.143,-753.763 401.089,-1370.478 435.436,-1370.478 34.347,0 62.448,46.517 62.448,103.37 0,56.854 214.355,870.202 476.345,1807.442 261.989,937.239 476.498,1748.76 476.688,1803.381 0.257,74.535 -265.827,99.31 -1066.597,99.31 h -1066.94 z m 11155.305,4237.389 c 801.519,-214.097 1599.444,-665.4 2182.903,-1234.64 966.715,-943.154 1270.752,-1681.021 1331.652,-3231.776 47.882,-1219.24 -77.945,-1947.068 -474.89,-2746.947 -355.694,-716.754 -1134.996,-1473.208 -1887.67,-1832.326 -1047.203,-499.645 -1343.554,-550.279 -3466.096,-592.197 -2092.389,-41.323 -2153.918,-31.132 -2417.008,400.345 -147.785,242.371 -154.31,433.878 -153.473,4503.602 0.666,3238.434 24.503,4297.758 100.118,4449.087 54.584,109.24 223.877,263.691 376.207,343.224 251.214,131.161 446.836,141.088 2104.265,106.781 1323.045,-27.385 1958.85,-72.96 2303.992,-165.153 z m -2485.599,-1575.245 c -75.27,-90.695 -93.433,-860.869 -77.52,-3287.116 l 20.784,-3168.669 877.016,2.332 c 792.944,2.109 919.831,23.28 1323.646,220.848 1095.853,536.152 1539.211,1504.769 1481.533,3236.75 -27.303,819.855 -54.89,961.903 -279.302,1438.137 -502.288,1065.925 -1284.187,1573.453 -2523.97,1638.302 -578.288,30.248 -743.656,14.04 -822.187,-80.584 z M 24495.354,12606.74 l -20221.0453,-20.015 25.5978,-615.569 c 37.6247,-904.789 152.606,-1384.584 495.8308,-2069.0037 C 5336.6632,8823.4989 6271.267,7978.3741 7384.6536,7561.099 7809.8434,7401.7464 8041.0381,7382.0031 9918.187,7344.7429 l 2065.647,-41.0018 49.024,-401.6283 c 186.382,-1526.9472 1614.149,-2645.461 3149.007,-2466.9344 1311.218,152.5141 2430.505,1224.9771 2600.417,2491.632 l 56.011,417.549 6718.736,-20.3092 6718.736,-20.3091 99.362,-487.1306 c 239.344,-1173.4063 1026.804,-2004.6501 2178.59,-2299.7241 1604.382,-411.0237 3321.412,728.3528 3555.681,2359.4582 l 61.385,427.3965 2104.401,42.7361 c 1937.744,39.3517 2139.922,56.8608 2552.949,221.0934 1344.523,534.6252 2391.379,1638.375 2801.558,2953.8134 214.073,686.533 330.703,2037.359 179.542,2079.494 -51.059,14.232 -9192.305,16.871 -20313.879,5.862 z"
         id="path1" /></g></g></svg>
